# Blender 4.5.1 LTS
# www.blender.org
mtllib Arrow.mtl
o Arrow
v 0.000000 -0.000306 -0.075476
v 0.000000 0.802700 -0.075476
v 0.014725 0.802700 -0.074026
v 0.014725 -0.000306 -0.074026
v 0.028883 0.802700 -0.069731
v 0.028883 -0.000306 -0.069731
v 0.041932 0.802700 -0.062756
v 0.041932 -0.000306 -0.062756
v 0.053369 0.802700 -0.053369
v 0.053369 -0.000306 -0.053369
v 0.062756 0.802700 -0.041932
v 0.062756 -0.000306 -0.041932
v 0.069731 0.802700 -0.028883
v 0.069731 -0.000306 -0.028883
v 0.074026 0.802700 -0.014725
v 0.074026 -0.000306 -0.014725
v 0.075476 0.802700 0.000000
v 0.075476 -0.000306 0.000000
v 0.074026 0.802700 0.014725
v 0.074026 -0.000306 0.014725
v 0.069731 0.802700 0.028883
v 0.069731 -0.000306 0.028883
v 0.062756 0.802700 0.041932
v 0.062756 -0.000306 0.041932
v 0.053369 0.802700 0.053369
v 0.053369 -0.000306 0.053369
v 0.041932 0.802700 0.062756
v 0.041932 -0.000306 0.062756
v 0.028883 0.802700 0.069731
v 0.028883 -0.000306 0.069731
v 0.014725 0.802700 0.074026
v 0.014725 -0.000306 0.074026
v 0.000000 0.802700 0.075476
v 0.000000 -0.000306 0.075476
v -0.014725 0.802700 0.074026
v -0.014725 -0.000306 0.074026
v -0.028883 0.802700 0.069731
v -0.028883 -0.000306 0.069731
v -0.041932 0.802700 0.062756
v -0.041932 -0.000306 0.062756
v -0.053369 0.802700 0.053369
v -0.053369 -0.000306 0.053369
v -0.062756 0.802700 0.041932
v -0.062756 -0.000306 0.041932
v -0.069731 0.802700 0.028883
v -0.069731 -0.000306 0.028883
v -0.074026 0.802700 0.014725
v -0.074026 -0.000306 0.014725
v -0.075476 0.802700 0.000000
v -0.075476 -0.000306 0.000000
v -0.074026 0.802700 -0.014725
v -0.074026 -0.000306 -0.014725
v -0.069731 0.802700 -0.028883
v -0.069731 -0.000306 -0.028883
v -0.062756 0.802700 -0.041932
v -0.062756 -0.000306 -0.041932
v -0.053369 0.802700 -0.053369
v -0.053369 -0.000306 -0.053369
v -0.041932 0.802700 -0.062756
v -0.041932 -0.000306 -0.062756
v -0.028883 0.802700 -0.069731
v -0.028883 -0.000306 -0.069731
v 0.130272 0.654844 0.025913
v 0.122714 0.654844 0.050830
v -0.014725 0.802700 -0.074026
v -0.014725 -0.000306 -0.074026
v 0.050830 0.654844 -0.122714
v 0.025913 0.654844 -0.130272
v 0.000000 0.654844 -0.132825
v -0.025913 0.654844 -0.130272
v -0.050830 0.654844 -0.122714
v -0.073793 0.654844 -0.110440
v -0.093921 0.654844 -0.093921
v -0.110440 0.654844 -0.073793
v -0.122714 0.654844 -0.050830
v -0.130272 0.654844 -0.025913
v -0.132825 0.654844 -0.000000
v -0.130272 0.654844 0.025913
v -0.122714 0.654844 0.050830
v -0.110440 0.654844 0.073793
v -0.093921 0.654844 0.093921
v -0.073793 0.654844 0.110440
v -0.050830 0.654844 0.122714
v -0.025913 0.654844 0.130272
v 0.000000 0.654844 0.132825
v 0.025913 0.654844 0.130272
v 0.050830 0.654844 0.122714
v 0.073793 0.654844 0.110440
v 0.093921 0.654844 0.093921
v 0.110440 0.654844 0.073793
v 0.132825 0.654844 -0.000000
v 0.130272 0.654844 -0.025913
v 0.122714 0.654844 -0.050830
v 0.110440 0.654844 -0.073793
v 0.093921 0.654844 -0.093921
v 0.073793 0.654844 -0.110440
v -0.000000 1.005231 0.000000
vn 0.0980 -0.0000 -0.9952
vn 0.2903 -0.0000 -0.9569
vn 0.4714 -0.0000 -0.8819
vn 0.6344 -0.0000 -0.7730
vn 0.7730 -0.0000 -0.6344
vn 0.8819 -0.0000 -0.4714
vn 0.9569 -0.0000 -0.2903
vn 0.9952 -0.0000 -0.0980
vn 0.9952 -0.0000 0.0980
vn 0.9569 -0.0000 0.2903
vn 0.8819 -0.0000 0.4714
vn 0.7730 -0.0000 0.6344
vn 0.6344 -0.0000 0.7730
vn 0.4714 -0.0000 0.8819
vn 0.2903 -0.0000 0.9569
vn 0.0980 -0.0000 0.9952
vn -0.0980 -0.0000 0.9952
vn -0.2903 -0.0000 0.9569
vn -0.4714 -0.0000 0.8819
vn -0.6344 -0.0000 0.7730
vn -0.7730 -0.0000 0.6344
vn -0.8819 -0.0000 0.4714
vn -0.9569 -0.0000 0.2903
vn -0.9952 -0.0000 0.0980
vn -0.9952 -0.0000 -0.0980
vn -0.9569 -0.0000 -0.2903
vn -0.8819 -0.0000 -0.4714
vn -0.7730 -0.0000 -0.6344
vn -0.6344 -0.0000 -0.7730
vn -0.4714 -0.0000 -0.8819
vn -0.8927 -0.3601 -0.2708
vn -0.2903 -0.0000 -0.9569
vn -0.0980 -0.0000 -0.9952
vn -0.0000 -1.0000 -0.0000
vn -0.0000 1.0000 -0.0000
vn 0.4398 -0.3601 -0.8228
vn 0.7211 -0.3601 0.5918
vn 0.7212 -0.3601 0.5918
vn -0.8228 -0.3601 0.4398
vn -0.2708 -0.3601 -0.8927
vn 0.9284 -0.3601 -0.0914
vn -0.2708 -0.3601 0.8927
vn -0.8228 -0.3601 -0.4398
vn 0.5918 -0.3601 -0.7211
vn 0.5918 -0.3601 -0.7212
vn 0.5918 -0.3601 0.7212
vn -0.8927 -0.3601 0.2708
vn -0.0914 -0.3601 -0.9284
vn 0.9284 -0.3601 0.0914
vn -0.4398 -0.3601 0.8228
vn -0.7211 -0.3601 -0.5918
vn -0.7212 -0.3601 -0.5918
vn 0.7211 -0.3601 -0.5918
vn 0.7212 -0.3601 -0.5918
vn 0.4398 -0.3601 0.8228
vn -0.9284 -0.3601 0.0914
vn 0.0914 -0.3601 -0.9284
vn 0.8927 -0.3601 0.2708
vn -0.5918 -0.3601 0.7211
vn -0.5918 -0.3601 0.7212
vn -0.5918 -0.3601 -0.7212
vn 0.8228 -0.3601 -0.4398
vn 0.2708 -0.3601 0.8927
vn -0.9284 -0.3601 -0.0914
vn 0.2708 -0.3601 -0.8927
vn 0.8228 -0.3601 0.4398
vn -0.7211 -0.3601 0.5918
vn -0.7212 -0.3601 0.5918
vn -0.4398 -0.3601 -0.8228
vn 0.8927 -0.3601 -0.2708
vn -0.0914 -0.3601 0.9284
vn 0.0914 -0.3601 0.9284
vn -0.8972 -0.3477 -0.2722
vn 0.4420 -0.3477 -0.8269
vn 0.7248 -0.3477 0.5948
vn -0.8269 -0.3477 0.4420
vn -0.2722 -0.3477 -0.8972
vn 0.9331 -0.3477 -0.0919
vn -0.2722 -0.3477 0.8972
vn -0.8269 -0.3477 -0.4420
vn 0.5948 -0.3477 -0.7248
vn 0.5948 -0.3477 0.7248
vn -0.8972 -0.3477 0.2722
vn -0.0919 -0.3477 -0.9331
vn 0.9331 -0.3477 0.0919
vn -0.4420 -0.3477 0.8269
vn -0.7248 -0.3477 -0.5948
vn 0.7248 -0.3477 -0.5948
vn 0.4420 -0.3477 0.8269
vn -0.9331 -0.3477 0.0919
vn 0.0919 -0.3477 -0.9331
vn 0.8972 -0.3477 0.2722
vn -0.5948 -0.3477 0.7248
vn -0.5948 -0.3477 -0.7248
vn 0.8269 -0.3477 -0.4420
vn 0.2722 -0.3477 0.8972
vn -0.9331 -0.3477 -0.0919
vn 0.2722 -0.3477 -0.8972
vn 0.8269 -0.3477 0.4420
vn -0.7248 -0.3477 0.5948
vn -0.4420 -0.3477 -0.8269
vn 0.8972 -0.3477 -0.2722
vn -0.0919 -0.3477 0.9331
vn 0.0919 -0.3477 0.9331
s 0
f 1//1 2//1 3//1
f 1//1 3//1 4//1
f 4//2 3//2 5//2
f 4//2 5//2 6//2
f 6//3 5//3 7//3
f 6//3 7//3 8//3
f 8//4 7//4 9//4
f 8//4 9//4 10//4
f 10//5 9//5 11//5
f 10//5 11//5 12//5
f 12//6 11//6 13//6
f 12//6 13//6 14//6
f 14//7 13//7 15//7
f 14//7 15//7 16//7
f 16//8 15//8 17//8
f 16//8 17//8 18//8
f 18//9 17//9 19//9
f 18//9 19//9 20//9
f 20//10 19//10 21//10
f 20//10 21//10 22//10
f 22//11 21//11 23//11
f 22//11 23//11 24//11
f 24//12 23//12 25//12
f 24//12 25//12 26//12
f 26//13 25//13 27//13
f 26//13 27//13 28//13
f 28//14 27//14 29//14
f 28//14 29//14 30//14
f 30//15 29//15 31//15
f 30//15 31//15 32//15
f 32//16 31//16 33//16
f 32//16 33//16 34//16
f 34//17 33//17 35//17
f 34//17 35//17 36//17
f 36//18 35//18 37//18
f 36//18 37//18 38//18
f 38//19 37//19 39//19
f 38//19 39//19 40//19
f 40//20 39//20 41//20
f 40//20 41//20 42//20
f 42//21 41//21 43//21
f 42//21 43//21 44//21
f 44//22 43//22 45//22
f 44//22 45//22 46//22
f 46//23 45//23 47//23
f 46//23 47//23 48//23
f 48//24 47//24 49//24
f 48//24 49//24 50//24
f 50//25 49//25 51//25
f 50//25 51//25 52//25
f 52//26 51//26 53//26
f 52//26 53//26 54//26
f 54//27 53//27 55//27
f 54//27 55//27 56//27
f 56//28 55//28 57//28
f 56//28 57//28 58//28
f 58//29 57//29 59//29
f 58//29 59//29 60//29
f 60//30 59//30 61//30
f 60//30 61//30 62//30
f 21//31 19//31 63//31
f 21//31 63//31 64//31
f 62//32 61//32 65//32
f 62//32 65//32 66//32
f 66//33 65//33 2//33
f 66//33 2//33 1//33
f 66//34 1//34 4//34
f 4//34 6//34 8//34
f 8//34 10//34 12//34
f 12//34 14//34 16//34
f 16//34 18//34 20//34
f 20//34 22//34 24//34
f 24//34 26//34 28//34
f 28//34 30//34 32//34
f 32//34 34//34 36//34
f 36//34 38//34 40//34
f 40//34 42//34 44//34
f 44//34 46//34 48//34
f 48//34 50//34 52//34
f 52//34 54//34 56//34
f 56//34 58//34 60//34
f 60//34 62//34 66//34
f 66//34 4//34 8//34
f 8//34 12//34 16//34
f 16//34 20//34 24//34
f 24//34 28//34 32//34
f 32//34 36//34 40//34
f 40//34 44//34 48//34
f 48//34 52//34 56//34
f 56//34 60//34 66//34
f 66//34 8//34 16//34
f 16//34 24//34 32//34
f 32//34 40//34 48//34
f 48//34 56//34 66//34
f 66//34 16//34 32//34
f 32//34 48//34 66//34
f 67//35 68//35 69//35
f 69//35 70//35 71//35
f 71//35 72//35 73//35
f 73//35 74//35 75//35
f 75//35 76//35 77//35
f 77//35 78//35 79//35
f 79//35 80//35 81//35
f 81//35 82//35 83//35
f 83//35 84//35 85//35
f 85//35 86//35 87//35
f 87//35 88//35 89//35
f 89//35 90//35 64//35
f 64//35 63//35 91//35
f 91//35 92//35 93//35
f 93//35 94//35 95//35
f 95//35 96//35 67//35
f 67//35 69//35 71//35
f 71//35 73//35 75//35
f 75//35 77//35 79//35
f 79//35 81//35 83//35
f 83//35 85//35 87//35
f 87//35 89//35 64//35
f 64//35 91//35 93//35
f 93//35 95//35 67//35
f 67//35 71//35 75//35
f 75//35 79//35 83//35
f 83//35 87//35 64//35
f 64//35 93//35 67//35
f 67//35 75//35 83//35
f 83//35 64//35 67//35
f 39//36 37//36 83//36
f 39//36 83//36 82//36
f 57//37 55//37 74//37
f 57//38 74//38 73//38
f 13//39 11//39 94//39
f 13//39 94//39 93//39
f 31//40 29//40 87//40
f 31//40 87//40 86//40
f 49//41 47//41 78//41
f 49//41 78//41 77//41
f 5//42 3//42 68//42
f 5//42 68//42 67//42
f 23//43 21//43 64//43
f 23//43 64//43 90//43
f 41//44 39//44 82//44
f 41//45 82//45 81//45
f 59//46 57//46 73//46
f 59//46 73//46 72//46
f 15//47 13//47 93//47
f 15//47 93//47 92//47
f 33//48 31//48 86//48
f 33//48 86//48 85//48
f 51//49 49//49 77//49
f 51//49 77//49 76//49
f 7//50 5//50 67//50
f 7//50 67//50 96//50
f 25//51 23//51 90//51
f 25//52 90//52 89//52
f 43//53 41//53 81//53
f 43//54 81//54 80//54
f 61//55 59//55 72//55
f 61//55 72//55 71//55
f 17//56 15//56 92//56
f 17//56 92//56 91//56
f 35//57 33//57 85//57
f 35//57 85//57 84//57
f 53//58 51//58 76//58
f 53//58 76//58 75//58
f 9//59 7//59 96//59
f 9//60 96//60 95//60
f 27//61 25//61 89//61
f 27//61 89//61 88//61
f 45//62 43//62 80//62
f 45//62 80//62 79//62
f 65//63 61//63 71//63
f 65//63 71//63 70//63
f 19//64 17//64 91//64
f 19//64 91//64 63//64
f 37//65 35//65 84//65
f 37//65 84//65 83//65
f 55//66 53//66 75//66
f 55//66 75//66 74//66
f 11//67 9//67 95//67
f 11//68 95//68 94//68
f 29//69 27//69 88//69
f 29//69 88//69 87//69
f 47//70 45//70 79//70
f 47//70 79//70 78//70
f 3//71 2//71 69//71
f 3//71 69//71 68//71
f 2//72 65//72 70//72
f 2//72 70//72 69//72
f 19//73 21//73 97//73
f 37//74 39//74 97//74
f 55//75 57//75 97//75
f 11//76 13//76 97//76
f 29//77 31//77 97//77
f 47//78 49//78 97//78
f 3//79 5//79 97//79
f 21//80 23//80 97//80
f 39//81 41//81 97//81
f 57//82 59//82 97//82
f 13//83 15//83 97//83
f 31//84 33//84 97//84
f 49//85 51//85 97//85
f 5//86 7//86 97//86
f 23//87 25//87 97//87
f 41//88 43//88 97//88
f 59//89 61//89 97//89
f 15//90 17//90 97//90
f 33//91 35//91 97//91
f 51//92 53//92 97//92
f 7//93 9//93 97//93
f 25//94 27//94 97//94
f 43//95 45//95 97//95
f 61//96 65//96 97//96
f 17//97 19//97 97//97
f 35//98 37//98 97//98
f 53//99 55//99 97//99
f 9//100 11//100 97//100
f 27//101 29//101 97//101
f 45//102 47//102 97//102
f 2//103 3//103 97//103
f 65//104 2//104 97//104
